:version 1.10
:name ASF
:units
  mass 1
  length 1
  angle deg
:documentation
  ASF file generated by Kaydara
:root
  axis xyz
  order  tx ty tz rx ry rz
  position 0 0 0
  orientation 0 0 0
:bonedata
  begin
    id 1
    name RightUpLegDummy
    direction -0.718183 -0.695806 0.00816078
    length 4.904
    axis 0 0 0 xyz
  end
  begin
    id 2
    name RightUpLeg
    direction -0.00334265 -0.999142 0.0412837
    length 17.4976
    axis -0.59612 0.00940841 -0.192072 xyz
    dof rx ry rz
  end
  begin
    id 3
    name RightLeg
    direction 0.000365068 -0.988824 -0.149089
    length 16.5821
    axis 6.58657 0.0604092 -0.318554 xyz
    dof rx ry rz
  end
  begin
    id 4
    name RightFoot
    direction 0.00079069 -0.460991 0.887405
    length 3.77069
    axis 0.000105557 -0.120464 -0.188919 xyz
    dof rx ry rz
  end
  begin
    id 5
    name RightToes
    direction 0.00124768 -0.014065 0.9999
    length 3.85082
    axis 0.00053932 0.542178 -0.142707 xyz
    dof rx ry rz
  end
  begin
    id 6
    name SpineDummy
    direction 8.3039e-015 1 4.58682e-016
    length 4.6813
    axis 0 0 0 xyz
  end
  begin
    id 7
    name Spine
    direction 4.12799e-006 0.999988 0.00494944
    length 10.1015
    axis -0.00149944 0.000129667 -0.000235877 xyz
    dof rx ry rz
  end
  begin
    id 8
    name Spine1
    direction 0 0 0
    length 0
    axis -0.00160567 0.000129431 -0.000308381 xyz
    dof rx ry rz
  end
  begin
    id 9
    name HEadDummy
    direction 5.38513e-006 0.999999 0.00127044
    length 3.43865
    axis -0.00160567 0.000129431 -0.000308381 xyz
  end
  begin
    id 10
    name HEad
    direction -0.0226495 0.980942 0.192974
    length 5.12695
    axis -0.00160642 -0.114462 -0.000307946 xyz
    dof rx ry rz
  end
  begin
    id 11
    name LeftShoulder1Dummy
    direction 0.99889 -0.0402564 -0.0244456
    length 3.5433
    axis -0.00160567 0.000129431 -0.000308381 xyz
  end
  begin
    id 12
    name LeftShoulder1
    direction 0.999464 -0.00142945 0.0326977
    length 4.05031
    axis 0.393425 -0.0796525 -0.0507861 xyz
    dof rx ry rz
  end
  begin
    id 13
    name LeftArm
    direction 0.998564 -0.000899612 -0.053557
    length 10.3537
    axis -22.9476 0.126974 0.960871 xyz
    dof rx ry rz
  end
  begin
    id 14
    name LeftForeArm
    direction 0.998903 0.00865904 0.0460121
    length 8.70632
    axis -9.91856 -0.0656997 -0.178106 xyz
    dof rx ry rz
  end
  begin
    id 15
    name LeftHand
    direction 0.992938 -0.0411687 0.11126
    length 5.32135
    axis -0.00981066 -0.00340928 0.18486 xyz
    dof rx ry rz
  end
  begin
    id 16
    name RightShoulderDummy
    direction -0.998891 -0.0402456 -0.0244411
    length 3.5433
    axis -0.00160567 0.000129431 -0.000308381 xyz
  end
  begin
    id 17
    name RightShoulder
    direction -0.999353 -0.00388479 0.0357579
    length 4.05031
    axis 1.48787 0.256014 0.157284 xyz
    dof rx ry rz
  end
  begin
    id 18
    name RightArm
    direction -0.998583 -0.000660455 -0.0532032
    length 10.3947
    axis -22.4211 -0.109147 -0.943573 xyz
    dof rx ry rz
  end
  begin
    id 19
    name RightForeArm
    direction -0.998898 0.00868588 0.0461311
    length 8.68355
    axis -9.92343 0.0658342 0.178556 xyz
    dof rx ry rz
  end
  begin
    id 20
    name RightHand
    direction -0.992843 -0.0414545 0.112004
    length 5.28593
    axis -0.00982288 0.00332907 -0.185539 xyz
    dof rx ry rz
  end
  begin
    id 21
    name LeftUpLegDummy
    direction 0.718183 -0.695806 0.00816078
    length 4.904
    axis 0 0 0 xyz
  end
  begin
    id 22
    name LeftUpLeg
    direction 0.00445374 -0.999139 0.0412407
    length 17.4976
    axis -0.593655 -0.0138231 0.255969 xyz
    dof rx ry rz
  end
  begin
    id 23
    name LeftLeg
    direction -0.00154847 -0.988829 -0.149046
    length 16.5821
    axis 6.5841 -0.0555156 0.250722 xyz
    dof rx ry rz
  end
  begin
    id 24
    name LeftFoot
    direction -0.00417678 -0.460985 0.887398
    length 3.77069
    axis 5.53694e-005 4.88088e-005 -0.000136194 xyz
    dof rx ry rz
  end
  begin
    id 25
    name LeftToes
    direction 0.00818061 -0.00485256 0.999955
    length 3.85048
    axis 6.41179e-005 4.88477e-005 -0.000136145 xyz
    dof rx ry rz
  end
:hierarchy
  begin
    root RightUpLegDummy SpineDummy LeftUpLegDummy
    RightUpLegDummy RightUpLeg
    RightUpLeg RightLeg
    RightLeg RightFoot
    RightFoot RightToes
    SpineDummy Spine
    Spine Spine1
    Spine1 HEadDummy LeftShoulder1Dummy RightShoulderDummy
    HEadDummy HEad
    LeftShoulder1Dummy LeftShoulder1
    LeftShoulder1 LeftArm
    LeftArm LeftForeArm
    LeftForeArm LeftHand
    RightShoulderDummy RightShoulder
    RightShoulder RightArm
    RightArm RightForeArm
    RightForeArm RightHand
    LeftUpLegDummy LeftUpLeg
    LeftUpLeg LeftLeg
    LeftLeg LeftFoot
    LeftFoot LeftToes
  end

:SAMPLES-PER-SECOND 30
:FULLY-SPECIFIED
:DEGREES
138
root  -0.0725539 40.282 0.33325 -164.801 -85.5722 165.557
RightUpLeg  3.57341 -6.65965 -10.3052
RightLeg  -4.41309 -9.45916 0.0133734
RightFoot  -1.22631 -0.781875 8.72481
RightToes  6.35927e-011 1.30204e-014 -6.03759e-014
Spine  0.90195 -1.17462 2.94883
Spine1  0.00632428 -0.745603 -2.77186
HEad  -43.5498 -8.06208 -14.417
LeftShoulder1  3.2292 -7.4351 -23.2745
LeftArm  11.8948 15.4021 -50.6734
LeftForeArm  6.85041 -14.4491 -10.5436
LeftHand  -0.259105 -0.777754 4.98254
RightShoulder  0.900386 0.18811 17.9174
RightArm  8.73036 2.75783 60.9525
RightForeArm  28.6468 1.51878 16.6204
RightHand  -0.164118 -2.91311 -7.11757
LeftUpLeg  6.34059 10.9784 13.1623
LeftLeg  -2.95263 22.8395 -2.3726
LeftFoot  -1.82472 0.642948 -7.58693
LeftToes  1.82556e-010 9.56953e-011 7.56925e-011
139
root  -0.0520916 40.2842 0.345735 -161.538 -85.822 162.194
RightUpLeg  3.72477 -6.77554 -10.4988
RightLeg  -4.41619 -9.62934 -0.00633862
RightFoot  -1.31876 -0.753539 8.47477
RightToes  6.35927e-011 1.30204e-014 -6.03759e-014
Spine  1.03964 -1.28368 4.22506
Spine1  -0.196538 -0.569196 -4.38428
HEad  -40.3853 -9.05937 -19.5985
LeftShoulder1  3.23656 -7.49421 -23.176
LeftArm  13.803 15.3355 -50.6285
LeftForeArm  5.38716 -15.6972 -9.78951
LeftHand  -0.231028 -0.0464014 4.99995
RightShoulder  0.922424 0.258604 18.0576
RightArm  11.4775 2.2651 60.922
RightForeArm  26.0451 2.95445 16.6124
RightHand  -0.22835 -2.25522 -8.07235
LeftUpLeg  6.39063 10.7706 12.9051
LeftLeg  -3.15238 22.7527 -2.34997
LeftFoot  -1.6881 0.658507 -7.67185
LeftToes  1.82556e-010 9.56953e-011 7.56925e-011
140
root  -0.0143763 40.2849 0.357134 -158.969 -85.855 159.695
RightUpLeg  3.58837 -6.86349 -10.6742
RightLeg  -4.42502 -9.66563 -0.0121555
RightFoot  -1.28914 -0.748739 8.42528
RightToes  6.35927e-011 1.30204e-014 -6.03759e-014
Spine  0.914677 -1.29953 5.46643
Spine1  0.0586934 -0.314573 -5.85931
HEad  -38.3638 -10.0701 -23.9129
LeftShoulder1  3.23522 -7.39935 -23.4339
LeftArm  12.8239 14.2622 -50.3803
LeftForeArm  6.141 -14.9584 -10.2569
LeftHand  -0.310941 -0.836586 5.89279
RightShoulder  0.919183 0.2944 17.7031
RightArm  13.2962 2.17924 61.3923
RightForeArm  25.2133 3.73708 16.5924
RightHand  -0.227173 -2.17916 -7.92908
LeftUpLeg  6.29532 10.6517 12.667
LeftLeg  -3.33746 22.8603 -2.44525
LeftFoot  -1.5984 0.660256 -7.62793
LeftToes  1.82556e-010 9.56953e-011 7.56925e-011
141
root  0.019583 40.2892 0.372424 -155.597 -85.9577 156.33
RightUpLeg  3.58372 -7.05415 -10.9413
RightLeg  -4.46005 -9.62224 0.0604835
RightFoot  -1.2101 -0.750915 8.36696
RightToes  6.35927e-011 1.30204e-014 -6.03759e-014
Spine  1.15758 -1.47157 6.3145
Spine1  0.00802003 -0.283998 -6.92834
HEad  -38.1544 -11.1721 -26.6862
LeftShoulder1  3.26455 -7.43324 -23.618
LeftArm  12.9937 14.8652 -50.2901
LeftForeArm  4.79084 -16.2063 -9.31628
LeftHand  -0.292485 -0.928744 5.49361
RightShoulder  0.948704 0.609803 16.4737
RightArm  15.6059 1.57078 62.5503
RightForeArm  23.6977 4.89852 16.4619
RightHand  -0.250295 -1.9719 -8.25681
LeftUpLeg  6.25969 10.5047 12.4171
LeftLeg  -3.54816 22.8482 -2.53352
LeftFoot  -1.45436 0.659982 -7.52348
LeftToes  1.82556e-010 9.56953e-011 7.56925e-011
142
root  0.0614441 40.2914 0.394706 -152.762 -85.8204 153.708
RightUpLeg  3.34698 -7.25988 -11.242
RightLeg  -4.62166 -9.39167 0.149323
RightFoot  -1.13461 -0.750014 8.29726
RightToes  6.35927e-011 1.30204e-014 -6.03759e-014
Spine  1.51597 -1.61164 7.40961
Spine1  -0.37435 -0.120087 -8.6342
HEad  -38.6816 -11.9611 -27.9084
LeftShoulder1  3.2844 -7.6326 -23.2446
LeftArm  10.8464 14.7936 -50.3414
LeftForeArm  6.38193 -15.3017 -9.79619
LeftHand  -0.301799 -1.2273 5.43902
RightShoulder  0.953294 0.734281 15.8258
RightArm  17.1636 1.14983 63.3877
RightForeArm  23.0556 5.34184 16.4719
RightHand  -0.261802 -1.82048 -8.31433
LeftUpLeg  6.05873 10.3246 12.0574
LeftLeg  -3.78932 23.1586 -2.67641
LeftFoot  -1.29364 0.662004 -7.43652
LeftToes  1.82556e-010 9.56953e-011 7.56925e-011
143
root  0.0947563 40.2964 0.415362 -150.621 -85.7208 151.72
RightUpLeg  3.05057 -7.40509 -11.4759
RightLeg  -4.4803 -9.27159 0.150853
RightFoot  -1.01584 -0.788673 8.6353
RightToes  6.35927e-011 1.30204e-014 -6.03759e-014
Spine  1.94367 -1.81294 8.06077
Spine1  -0.883121 -0.131619 -9.71628
HEad  -39.6726 -12.5907 -28.6856
LeftShoulder1  3.27101 -7.7082 -22.9074
LeftArm  9.48782 15.0172 -50.2646
LeftForeArm  7.85885 -14.4438 -10.2885
LeftHand  -0.334924 -1.5326 5.77931
RightShoulder  0.962363 0.838866 15.4633
RightArm  19.7558 1.12145 63.8493
RightForeArm  21.4492 5.37077 16.7337
RightHand  -0.229842 -2.28102 -8.279
LeftUpLeg  6.03951 10.2339 11.8363
LeftLeg  -4.21699 23.2516 -2.95773
LeftFoot  -1.14143 0.656818 -7.27788
LeftToes  1.82556e-010 9.56953e-011 7.56925e-011
144
root  0.116633 40.3018 0.427343 -148.917 -85.6492 150.201
RightUpLeg  2.87266 -7.43225 -11.6038
RightLeg  -4.61974 -9.30586 0.158342
RightFoot  -0.877909 -0.808533 8.74802
RightToes  6.35927e-011 1.30204e-014 -6.03759e-014
Spine  2.15601 -1.94446 8.53419
Spine1  -1.29775 -0.162597 -10.3968
HEad  -40.2219 -13.7682 -30.8232
LeftShoulder1  3.20264 -7.6541 -22.4147
LeftArm  6.63317 15.0864 -50.4046
LeftForeArm  10.3834 -12.9272 -10.9753
LeftHand  -0.333884 -1.3501 5.90823
RightShoulder  0.91339 0.71194 14.9134
RightArm  19.6666 0.943186 64.3407
RightForeArm  22.5412 4.68871 16.951
RightHand  -0.210309 -2.3633 -7.73346
LeftUpLeg  5.8493 10.1893 11.6633
LeftLeg  -4.34785 23.3763 -3.11637
LeftFoot  -0.986194 0.663499 -7.25177
LeftToes  1.82556e-010 9.56953e-011 7.56925e-011
145
root  0.130488 40.3067 0.428406 -146.885 -85.7409 148.28
RightUpLeg  2.83069 -7.48982 -11.6848
RightLeg  -4.76099 -9.3941 0.227296
RightFoot  -0.814427 -0.786146 8.45814
RightToes  6.35927e-011 1.30204e-014 -6.03759e-014
Spine  2.15942 -2.20779 9.62686
Spine1  -1.47282 -0.137673 -12.133
HEad  -39.0215 -14.7614 -33.3612
LeftShoulder1  2.90481 -7.23362 -20.6401
LeftArm  2.53494 14.8944 -51.3931
LeftForeArm  14.4419 -10.7653 -11.7017
LeftHand  -0.289379 -0.994961 5.38167
RightShoulder  0.895609 0.565324 15.3039
RightArm  18.6251 0.949539 64.2997
RightForeArm  24.2495 3.67101 17.1532
RightHand  -0.177893 -2.60088 -6.96144
LeftUpLeg  5.69713 10.1408 11.5509
LeftLeg  -4.4558 23.3218 -3.18266
LeftFoot  -0.884562 0.658507 -7.13297
LeftToes  1.82556e-010 9.56953e-011 7.56925e-011
146
root  0.135501 40.3065 0.42743 -144.571 -85.8173 145.967
RightUpLeg  2.90562 -7.55914 -11.8101
RightLeg  -4.83979 -9.4858 0.249614
RightFoot  -0.792676 -0.80391 8.63345
RightToes  6.35927e-011 1.30204e-014 -6.03759e-014
Spine  1.90049 -2.26388 10.3356
Spine1  -1.31517 0.00390944 -13.2801
HEad  -35.8391 -15.2094 -36.7109
LeftShoulder1  2.68956 -6.82898 -19.5541
LeftArm  -1.77792 14.4064 -52.0109
LeftForeArm  19.0269 -8.61967 -12.0276
LeftHand  -0.258214 -0.286457 5.35696
RightShoulder  0.884966 0.550608 15.0995
RightArm  17.0128 0.742156 64.389
RightForeArm  25.5976 2.60946 17.2957
RightHand  -0.171668 -2.77935 -7.14629
LeftUpLeg  5.64633 10.0785 11.439
LeftLeg  -4.47362 23.2392 -3.18896
LeftFoot  -0.836241 0.657365 -7.10491
LeftToes  1.82556e-010 9.56953e-011 7.56925e-011
147
root  0.142172 40.3053 0.427111 -143.259 -85.9988 144.63
RightUpLeg  2.92281 -7.56248 -11.793
RightLeg  -4.71793 -9.69624 0.254137
RightFoot  -0.80714 -0.815737 8.7724
RightToes  6.35927e-011 1.30204e-014 -6.03759e-014
Spine  1.38777 -2.15551 10.9137
Spine1  -0.809471 0.257387 -13.9989
HEad  -31.076 -14.8161 -40.0915
LeftShoulder1  2.53662 -6.3441 -19.2611
LeftArm  -5.57337 13.4885 -52.099
LeftForeArm  22.7133 -6.65182 -11.9978
LeftHand  -0.270882 0.209587 6.10431
RightShoulder  0.854291 0.597045 13.9996
RightArm  15.4499 0.316288 65.1081
RightForeArm  26.7972 1.68662 17.3799
RightHand  -0.163824 -2.94791 -7.22897
LeftUpLeg  5.60275 10.069 11.448
LeftLeg  -4.46981 23.048 -3.14413
LeftFoot  -0.851289 0.644521 -6.89135
LeftToes  1.82556e-010 9.56953e-011 7.56925e-011
148
root  0.148096 40.3041 0.417702 -142.04 -86.1088 143.214
RightUpLeg  3.06991 -7.61479 -11.8205
RightLeg  -4.53462 -9.69201 0.229077
RightFoot  -0.935001 -0.778222 8.45971
RightToes  6.35927e-011 1.30204e-014 -6.03759e-014
Spine  0.851117 -1.93744 11.3523
Spine1  -0.0562648 0.683089 -14.8418
HEad  -25.4846 -12.6627 -43.1896
LeftShoulder1  2.4588 -6.13898 -18.9823
LeftArm  -7.17879 12.8873 -51.988
LeftForeArm  23.3113 -6.0385 -11.8379
LeftHand  -0.22694 1.06721 6.04541
RightShoulder  0.805147 0.368585 13.9632
RightArm  15.4825 0.139882 64.8942
RightForeArm  27.2138 1.50967 17.4067
RightHand  -0.15276 -3.10568 -7.12558
LeftUpLeg  5.78647 10.032 11.4535
LeftLeg  -4.53595 22.9082 -3.10368
LeftFoot  -0.783832 0.646808 -6.91557
LeftToes  1.82556e-010 9.56953e-011 7.56925e-011
149
root  0.163647 40.3031 0.399628 -139.229 -86.2614 140.232
RightUpLeg  3.25533 -7.66055 -11.8917
RightLeg  -4.4363 -9.83729 0.215084
RightFoot  -1.00291 -0.786501 8.6025
RightToes  6.35927e-011 1.30204e-014 -6.03759e-014
Spine  0.452247 -1.80933 11.5002
Spine1  0.442723 0.954048 -15.4085
HEad  -19.2844 -9.02361 -46.1893
LeftShoulder1  2.34666 -5.81446 -18.6407
LeftArm  -8.25245 12.6936 -52.018
LeftForeArm  23.5492 -5.80808 -11.6449
LeftHand  -0.320959 0.545593 7.62999
RightShoulder  0.810731 0.425058 13.7864
RightArm  15.1975 -0.309606 64.731
RightForeArm  27.4214 1.61558 17.3568
RightHand  -0.157068 -2.97787 -6.98436
LeftUpLeg  5.85679 9.99915 11.4284
LeftLeg  -4.50494 22.7002 -3.04525
LeftFoot  -0.742151 0.650332 -6.96058
LeftToes  1.82556e-010 9.56953e-011 7.56925e-011
150
root  0.179342 40.3027 0.38556 -136.038 -86.5736 136.745
RightUpLeg  3.65978 -7.66711 -11.8666
RightLeg  -4.43245 -10.1558 0.231712
RightFoot  -1.05224 -0.790123 8.68006
RightToes  6.35927e-011 1.30204e-014 -6.03759e-014
Spine  0.193678 -1.76841 11.4595
Spine1  0.918872 1.06926 -15.5717
HEad  -12.8336 -4.21259 -48.8111
LeftShoulder1  2.20703 -5.46218 -18.024
LeftArm  -7.30185 13.0736 -52.4045
LeftForeArm  21.4468 -6.85529 -11.6297
LeftHand  -0.325285 0.55164 7.81608
RightShoulder  0.82678 0.520984 13.6794
RightArm  15.7057 -0.532172 64.2961
RightForeArm  26.7962 1.86737 17.3646
RightHand  -0.168352 -2.89226 -7.29148
LeftUpLeg  5.94584 10.0448 11.5395
LeftLeg  -4.27883 22.2357 -2.87092
LeftFoot  -0.785337 0.650622 -6.95466
LeftToes  1.82556e-010 9.56953e-011 7.56925e-011
